# xmcd
#
# Track frame offsets:
#	150
#	14054
#	27623
#	38435
#	52896
#	66689
#	79367
#	91376
#	104974
#	116983
#	130553
#	142172
#	155184
#	168810
#	183466
#	199349
#	212166
#	224677
#	237801
#	252235
#	265526
#	279681
#	293640
#	305678
#	316600
#
# Disc length: 4359 seconds
#
# Revision: 5
# Processed by: cddbd v1.5.2PL0 Copyright (c) Steve Scherf et al.
# Submitted via: audiograbber 1.83.01
#
DISCID=89110519
DTITLE=Jazz Gillum, Sonny Boy Williamson and various - Triomphes du Blues 14, Har
DTITLE=monica Blues
DYEAR=2001
DGENRE=Blues
TTITLE0=Noah Lewis - Viola Lee blues - 1928
TTITLE1=Hammie Nixon - Trouble trouble - 1934
TTITLE2=Jazz Gillum - Gillum' Windy blues - 1938
TTITLE3=Jazz Gillum - Mule blues - 1938
TTITLE4=Jazz Gillum - Against my will - 1939
TTITLE5=Jazz Gillum - Boar hog blues - 1938
TTITLE6=Jazz Gillum - Stavin' chain - 1938
TTITLE7=Jazz Gillum - Got to reap what you sow - 1939
TTITLE8=Jazz Gillum - Key to the highway - 1940
TTITLE9=Jazz Gillum - Muddy Pond blues - 1941
TTITLE10=Jazz Gillum - From now on - 1941
TTITLE11=Jazz Gillum - I'm gonna leave you on the outskierts of town - 1942
TTITLE12=Sonny Boy Williamson - Good morning little school girl - 1937
TTITLE13=Sonny Boy Williamson - Suzie Q - 1938
TTITLE14=Sonny Boy Williamson - Decoration blues - 1938
TTITLE15=Sonny Boy Williamson - Tell me baby - 1939
TTITLE16=Sonny Boy Williamson - I've been dealing with the devil - 1940
TTITLE17=Sonny Boy Williamson - War time blues - 1940
TTITLE18=Sonny Boy Williamson - Sloppy drunk blues - 1941
TTITLE19=Sonny Boy Williamson - Whiskey headed blues - 1938
TTITLE20=Sonny Boy Williamson - Goodbye Red - 1938
TTITLE21=Sonny Boy Williamson - Blue bird blues - 1937
TTITLE22=Big Walter Horton - Lost baby blues - 1939
TTITLE23=Little Walter - I just keep loving her - 1947
TTITLE24=Snooky Pryor - Boogie - 1947
EXTD=YEAR: 2001
EXTT0=
EXTT1=
EXTT2=
EXTT3=
EXTT4=
EXTT5=
EXTT6=
EXTT7=
EXTT8=
EXTT9=
EXTT10=
EXTT11=
EXTT12=
EXTT13=
EXTT14=
EXTT15=
EXTT16=
EXTT17=
EXTT18=
EXTT19=
EXTT20=
EXTT21=
EXTT22=
EXTT23=
EXTT24=
PLAYORDER=
